<svg width="79" height="67" viewBox="0 0 79 67" fill="none" xmlns="http://www.w3.org/2000/svg">
<path d="M28.0019 21.2492L29.0089 30.0554L2.92038 33.0387L1.91335 24.2325L28.0019 21.2492ZM12.7188 65.8196L7.53578 20.4949C7.18541 17.4311 7.4911 14.8219 8.45284 12.6675C9.43292 10.5109 10.911 8.8085 12.8871 7.56029C14.8632 6.31207 17.1814 5.53586 19.8416 5.23165C21.6395 5.02605 23.2972 4.97588 24.8148 5.08114C26.3506 5.1843 27.4981 5.304 28.2571 5.44023L27.1727 14.4856C26.6972 14.3913 26.1127 14.3188 25.4192 14.268C24.7441 14.2151 24.0579 14.2285 23.3608 14.3082C21.6362 14.5054 20.4807 15.0465 19.8942 15.9313C19.3056 16.7978 19.0931 17.9466 19.2567 19.3776L24.4146 64.4821L12.7188 65.8196Z" fill="#D95B00"/>
<path d="M23.8246 54.7943L38.5067 0L49.9044 3.05399L44.3842 23.6554L44.7321 23.7486C45.5278 22.7765 46.5513 21.8464 47.8025 20.9581C49.0763 20.0568 50.583 19.4282 52.3225 19.0722C54.0845 18.7032 56.1161 18.827 58.417 19.4435C61.4136 20.2465 63.968 21.7721 66.0802 24.0204C68.1972 26.2508 69.5932 29.1388 70.2681 32.6843C70.9479 36.212 70.6569 40.3302 69.3951 45.0391C68.1668 49.6232 66.3895 53.2954 64.0631 56.0558C61.7593 58.8031 59.1236 60.6491 56.1559 61.5935C53.2107 62.525 50.1775 62.5725 47.0561 61.7361C44.8443 61.1434 43.0605 60.2736 41.7047 59.1265C40.3667 57.9841 39.3553 56.7286 38.6706 55.3599C37.9907 53.9733 37.545 52.6399 37.3337 51.3598L36.8253 51.2236L35.0617 57.8053L23.8246 54.7943ZM40.4873 37.2359C39.8325 39.6796 39.6003 41.9019 39.7906 43.9028C39.9809 45.9038 40.5819 47.5846 41.5937 48.9454C42.6103 50.2884 44.0372 51.206 45.8744 51.6983C47.7294 52.1954 49.4353 52.1076 50.9919 51.435C52.5534 50.7446 53.9078 49.5781 55.0553 47.9356C56.2253 46.2801 57.1306 44.2572 57.771 41.8671C58.4067 39.4948 58.6359 37.3195 58.4586 35.3412C58.2814 33.3628 57.6868 31.6933 56.675 30.3324C55.6632 28.9716 54.2209 28.0403 52.348 27.5385C50.493 27.0414 48.7919 27.1114 47.2448 27.7483C45.7156 28.39 44.3707 29.5208 43.2102 31.1407C42.0497 32.7605 41.142 34.7923 40.4873 37.2359Z" fill="#D95B00"/>
</svg>
