<svg width="37" height="37" viewBox="0 0 37 37" fill="none" xmlns="http://www.w3.org/2000/svg">
<path fill-rule="evenodd" clip-rule="evenodd" d="M18.4999 32.375C26.1628 32.375 32.3749 26.1629 32.3749 18.5C32.3749 10.8372 26.1628 4.62501 18.4999 4.62501C10.8371 4.62501 4.62492 10.8372 4.62492 18.5C4.62492 26.1629 10.8371 32.375 18.4999 32.375ZM18.4999 33.9167C27.0145 33.9167 33.9166 27.0146 33.9166 18.5C33.9166 9.98539 27.0145 3.08334 18.4999 3.08334C9.98529 3.08334 3.08325 9.98539 3.08325 18.5C3.08325 27.0146 9.98529 33.9167 18.4999 33.9167Z" fill="#1C1C1C"/>
<path d="M9.25 27.4648C9.25 26.6685 9.84508 25.9956 10.6375 25.9077C16.5845 25.2494 20.4425 25.3088 26.3764 25.9224C26.6727 25.9535 26.9535 26.0702 27.1846 26.2583C27.4157 26.4464 27.5869 26.6977 27.6775 26.9816C27.7681 27.2654 27.7741 27.5695 27.6947 27.8567C27.6153 28.1439 27.454 28.4017 27.2305 28.5987C20.2274 34.7029 16.2253 34.6189 9.74333 28.6049C9.42729 28.3119 9.25 27.8957 9.25 27.4656V27.4648Z" fill="#1C1C1C"/>
<path fill-rule="evenodd" clip-rule="evenodd" d="M26.2968 26.6886C20.41 26.0796 16.6074 26.0226 10.7214 26.6739C10.5276 26.6965 10.349 26.7898 10.2197 26.9358C10.0904 27.0819 10.0196 27.2705 10.0207 27.4656C10.0207 27.686 10.1124 27.8949 10.2673 28.0398C13.4802 31.0199 15.9145 32.3665 18.294 32.375C20.6821 32.3835 23.2474 31.0476 26.7239 28.0183C26.8343 27.92 26.9138 27.7917 26.9527 27.649C26.9916 27.5064 26.9883 27.3555 26.943 27.2148C26.8978 27.074 26.8126 26.9494 26.6979 26.8561C26.5832 26.7629 26.4439 26.7049 26.2968 26.6893V26.6886ZM10.5525 25.1415C16.562 24.4763 20.4763 24.5364 26.4564 25.1554C26.9022 25.2019 27.3247 25.3774 27.6723 25.6604C28.0198 25.9434 28.2774 26.3215 28.4133 26.7486C28.5493 27.1757 28.5577 27.6331 28.4377 28.065C28.3177 28.4968 28.0744 28.8842 27.7375 29.1799C24.2109 32.254 21.2741 33.9282 18.2894 33.9167C15.2963 33.9059 12.4889 32.2031 9.21978 29.1699C8.98572 28.9519 8.79913 28.6879 8.67167 28.3946C8.54422 28.1012 8.47863 27.7847 8.47901 27.4648C8.47788 26.8901 8.68883 26.3352 9.07144 25.9063C9.45405 25.4775 9.98143 25.2049 10.5525 25.1407V25.1415Z" fill="#1C1C1C"/>
<path d="M24.6666 15.4167C24.6666 17.0522 24.0169 18.6207 22.8604 19.7772C21.7039 20.9336 20.1354 21.5833 18.4999 21.5833C16.8644 21.5833 15.2959 20.9336 14.1394 19.7772C12.983 18.6207 12.3333 17.0522 12.3333 15.4167C12.3333 13.7812 12.983 12.2126 14.1394 11.0562C15.2959 9.8997 16.8644 9.25 18.4999 9.25C20.1354 9.25 21.7039 9.8997 22.8604 11.0562C24.0169 12.2126 24.6666 13.7812 24.6666 15.4167Z" fill="#1C1C1C"/>
<path fill-rule="evenodd" clip-rule="evenodd" d="M18.4999 20.0417C19.7265 20.0417 20.9029 19.5544 21.7703 18.687C22.6376 17.8197 23.1249 16.6433 23.1249 15.4167C23.1249 14.19 22.6376 13.0137 21.7703 12.1463C20.9029 11.2789 19.7265 10.7917 18.4999 10.7917C17.2733 10.7917 16.0969 11.2789 15.2295 12.1463C14.3622 13.0137 13.8749 14.19 13.8749 15.4167C13.8749 16.6433 14.3622 17.8197 15.2295 18.687C16.0969 19.5544 17.2733 20.0417 18.4999 20.0417ZM18.4999 21.5833C20.1354 21.5833 21.7039 20.9336 22.8604 19.7772C24.0169 18.6207 24.6666 17.0522 24.6666 15.4167C24.6666 13.7812 24.0169 12.2126 22.8604 11.0562C21.7039 9.8997 20.1354 9.25 18.4999 9.25C16.8644 9.25 15.2959 9.8997 14.1394 11.0562C12.983 12.2126 12.3333 13.7812 12.3333 15.4167C12.3333 17.0522 12.983 18.6207 14.1394 19.7772C15.2959 20.9336 16.8644 21.5833 18.4999 21.5833Z" fill="#1C1C1C"/>
</svg>
